<svg xmlns="http://www.w3.org/2000/svg" width="24" height="24" fill="none"><path d="M19.971 5.99S17.659 4.159 14.949 4l-.239.478c2.471.637 3.587 1.433 4.703 2.468-1.993-1.035-3.985-1.99-7.493-1.99S6.5 5.99 4.507 7.025C5.703 5.99 6.978 5.035 9.21 4.478L8.971 4c-2.79.318-4.942 1.99-4.942 1.99S1.478 9.731 1 16.975C3.551 19.92 7.536 20 7.536 20l.797-1.114a10.44 10.44 0 0 1-4.304-2.866c1.594 1.194 4.065 2.468 7.971 2.468s6.377-1.274 7.971-2.468c-1.355 1.592-2.949 2.388-4.304 2.866L16.464 20S20.37 20 23 16.975C22.522 9.731 19.971 5.99 19.971 5.99zM8.732 14.985c-.957 0-1.754-.876-1.754-1.99s.797-1.99 1.754-1.99 1.754.876 1.754 1.99-.797 1.99-1.754 1.99zm6.536 0c-.957 0-1.754-.876-1.754-1.99s.797-1.99 1.754-1.99 1.754.876 1.754 1.99-.797 1.99-1.754 1.99z" fill="#9ea2ab"/></svg>