<svg xmlns="http://www.w3.org/2000/svg" width="24" height="24" fill="none"><path fill-rule="evenodd" d="M17.286 19.82c.288.208.649.208.937.139.288-.139.505-.346.577-.693l3.173-14.477c.072-.208 0-.485-.216-.623s-.433-.208-.649-.139l-18.675 6.65c-.288.069-.433.346-.433.623s.216.554.505.623l4.543 1.385 1.875 5.264c.072.208.288.416.505.485s.505 0 .649-.139l2.596-2.355 4.615 3.256zm-9.157-6.996l1.37 4.433.288-2.84 8.508-7.342c.072-.069.072-.208 0-.277s-.216-.139-.288-.069l-9.878 6.096z" fill="#9EA2AB"/></svg>