<svg xmlns="http://www.w3.org/2000/svg" width="24" height="24" fill="none"><path fill-rule="evenodd" d="M19.917 18.259c1.25-.912 2.083-2.238 2.083-3.813 0-2.736-2.667-4.974-6-4.974s-6 2.238-6 4.974 2.667 4.974 6 4.974a8.26 8.26 0 0 0 2-.249h.167c.083 0 .25 0 .333.083l1.333.746h.083a.18.18 0 0 0 .167-.166v-.166l-.25-.995v-.166c-.083 0 0-.166.083-.249zM9.25 4C5.25 4 2 6.653 2 9.969c0 1.824 1 3.399 2.5 4.56a.63.63 0 0 1 .167.415v.166l-.333 1.243v.166c0 .166.083.249.25.249l.167-.083 1.583-.912c.083-.083.167-.166.333-.166h.25c.75.249 1.5.332 2.333.332h.417a4.66 4.66 0 0 1-.25-1.492c0-2.985 2.917-5.472 6.583-5.472h.417C15.833 6.155 12.833 4 9.25 4zM14 13.7c-.417 0-.833-.332-.833-.829 0-.415.333-.829.833-.829.417 0 .833.332.833.829-.083.497-.417.829-.833.829zm4 0c-.417 0-.833-.332-.833-.829 0-.415.333-.829.833-.829.417 0 .833.332.833.829-.083.497-.417.829-.833.829zM6.833 9.057c-.5 0-1-.415-1-.995 0-.497.417-.995 1-.995s1 .415 1 .995c-.083.58-.5.995-1 .995zm4.833 0c-.5 0-1-.415-1-.995 0-.497.417-.995 1-.995s1 .415 1 .995c-.083.58-.5.995-1 .995z" fill="#9ea2ab"/></svg>